<svg width="37" height="33" viewBox="0 0 37 33" fill="none" xmlns="http://www.w3.org/2000/svg">
<g id="Group">
<path id="Vector" d="M18.3939 32.459C28.3285 32.459 36.4109 25.2228 36.4109 16.3279C36.4109 7.43353 28.3285 0.197388 18.3939 0.197388C8.4586 0.197388 0.376141 7.43353 0.376141 16.3279C0.376141 25.2228 8.4586 32.459 18.3939 32.459ZM18.3939 2.44346C26.9449 2.44346 33.9022 8.67227 33.9022 16.3279C33.9022 23.9841 26.9449 30.2129 18.3939 30.2129C9.84223 30.2129 2.88491 23.9841 2.88491 16.3279C2.88491 8.67227 9.84223 2.44346 18.3939 2.44346Z" fill="#3F3D56"/>
<path id="Vector_2" d="M22.0052 23.763C22.3469 23.763 22.6875 23.6385 22.9349 23.3939C23.4004 22.9338 23.3612 22.2237 22.8467 21.8075L15.8864 16.1649L22.1877 9.93337C22.6532 9.47385 22.6128 8.76373 22.0995 8.34752C21.5862 7.93131 20.7924 7.96641 20.3282 8.42649L13.1853 15.4904C12.7198 15.95 12.759 16.6601 13.2735 17.0763L21.1636 23.4723C21.4037 23.667 21.7051 23.763 22.0052 23.763Z" fill="#3F3D56"/>
</g>
</svg>
